<?xml version="1.0" standalone="no"?>
<!DOCTYPE svg PUBLIC "-//W3C//DTD SVG 20010904//EN"
 "http://www.w3.org/TR/2001/REC-SVG-20010904/DTD/svg10.dtd">
<svg version="1.0" xmlns="http://www.w3.org/2000/svg"
 width="700.000000pt" height="700.000000pt" viewBox="0 0 700.000000 700.000000"
 preserveAspectRatio="xMidYMid meet">
<metadata>
Created by potrace 1.14, written by Peter Selinger 2001-2017
</metadata>
<g transform="translate(0.000000,700.000000) scale(0.100000,-0.100000)"
fill="#000000" stroke="none">
<path d="M3426 6963 c-23 -25 -3343 -5447 -3388 -5535 -11 -21 -25 -66 -30
-100 -10 -56 -9 -72 10 -134 37 -121 92 -168 422 -362 769 -452 1628 -724
2550 -808 228 -21 748 -24 965 -5 1029 87 1935 388 2788 924 181 114 232 176
253 313 10 67 -18 150 -94 275 -609 1007 -3320 5429 -3336 5441 -13 11 -39 18
-68 18 -38 0 -51 -5 -72 -27z m304 -668 c121 -203 220 -373 220 -377 0 -8 -59
-11 -164 -8 -60 2 -156 24 -238 56 -46 18 -49 18 -95 0 -119 -47 -197 -59
-352 -57 -45 1 -52 4 -47 17 15 39 441 744 448 742 4 -2 106 -169 228 -373z
m-143 -572 c77 -23 106 -26 228 -27 86 -1 164 4 203 13 37 8 67 10 72 5 29
-31 2150 -3518 2143 -3523 -5 -3 -63 -43 -129 -87 -627 -427 -1353 -687 -2149
-770 -197 -21 -670 -24 -865 -6 -820 77 -1568 345 -2230 800 -52 35 -97 66
-98 68 -4 3 2133 3502 2148 3518 5 5 35 3 72 -5 39 -9 116 -14 203 -13 120 1
152 5 220 26 44 14 83 26 87 27 4 0 47 -11 95 -26z m2993 -4083 c168 -273 194
-321 194 -357 1 -56 -20 -77 -179 -176 -803 -499 -1674 -783 -2660 -868 -180
-16 -689 -16 -870 0 -634 54 -1191 184 -1758 412 -292 117 -701 329 -970 503
-99 64 -127 104 -109 155 9 24 393 662 413 685 4 5 56 -24 115 -64 258 -176
629 -374 917 -489 407 -164 859 -275 1337 -328 220 -24 762 -24 985 1 464 51
895 155 1295 312 321 127 721 339 964 513 l99 71 17 -28 c9 -15 104 -169 210
-342z"/>
<path d="M3391 5234 c-167 -45 -293 -184 -321 -354 -31 -185 73 -381 247 -463
64 -30 74 -32 183 -32 109 0 119 2 183 32 174 82 278 278 247 463 -42 254
-295 420 -539 354z"/>
<path d="M2557 4149 c-194 -27 -351 -199 -364 -399 -16 -232 137 -423 371
-462 165 -27 351 63 439 213 110 188 52 450 -127 574 -93 64 -205 90 -319 74z"/>
<path d="M4307 4149 c-194 -27 -351 -199 -364 -399 -16 -232 137 -423 371
-462 165 -27 351 63 439 213 110 188 52 450 -127 574 -93 64 -205 90 -319 74z"/>
<path d="M1837 2930 c-202 -64 -334 -277 -299 -480 63 -355 483 -493 737 -242
87 85 126 181 126 306 0 101 -20 167 -72 246 -105 157 -311 228 -492 170z"/>
<path d="M4899 2931 c-158 -50 -275 -189 -298 -352 -18 -134 26 -272 117 -365
254 -258 680 -122 744 236 27 156 -51 334 -186 426 -105 71 -258 93 -377 55z"/>
<path d="M3375 2607 c-163 -54 -279 -189 -306 -357 -37 -229 128 -452 365
-493 130 -22 264 21 367 119 221 212 159 575 -121 708 -57 27 -77 31 -165 33
-63 2 -115 -2 -140 -10z"/>
</g>
</svg>
